<?xml version="1.0" standalone="no"?>
<!DOCTYPE svg PUBLIC "-//W3C//DTD SVG 20010904//EN"
 "http://www.w3.org/TR/2001/REC-SVG-20010904/DTD/svg10.dtd">
<svg version="1.0" xmlns="http://www.w3.org/2000/svg"
 width="512.000000pt" height="512.000000pt" viewBox="0 0 512.000000 512.000000"
 preserveAspectRatio="xMidYMid meet">
<metadata>
Created by potrace 1.14, written by Peter Selinger 2001-2017
</metadata>
<g transform="translate(0.000000,512.000000) scale(0.100000,-0.100000)"
fill="#000000" stroke="none">
<path d="M2980 3437 c-21 -10 -27 -26 -41 -92 -18 -93 -15 -113 18 -126 47
-18 67 5 78 91 3 25 8 53 11 63 14 46 -26 84 -66 64z"/>
<path d="M2424 3305 c-16 -24 -15 -27 17 -80 62 -102 97 -125 132 -87 25 28
21 42 -34 120 -56 81 -85 92 -115 47z"/>
<path d="M2770 3153 c-44 -9 -122 -43 -167 -74 -38 -27 -44 -35 -41 -62 5 -48
43 -57 95 -23 73 49 132 65 224 63 105 -3 176 -34 249 -107 113 -112 139 -273
70 -424 -10 -23 -28 -51 -39 -63 l-21 -22 -45 30 c-66 45 -149 71 -225 71
l-65 0 -34 71 c-119 250 -403 348 -656 227 -124 -59 -217 -178 -255 -326 -9
-37 -14 -42 -48 -48 -92 -15 -208 -96 -257 -181 -83 -141 -76 -315 19 -444 60
-82 161 -144 258 -158 29 -5 287 -8 573 -7 510 1 521 1 587 23 259 87 377 387
243 622 l-24 43 28 35 c64 82 97 178 99 285 2 265 -199 473 -460 474 -46 0
-94 -2 -108 -5z m-280 -395 c104 -47 182 -139 215 -250 21 -74 33 -83 93 -72
144 28 296 -50 361 -186 22 -46 26 -69 26 -140 0 -72 -4 -94 -27 -140 -14 -30
-39 -68 -54 -84 -37 -39 -111 -84 -159 -98 -46 -12 -1044 -16 -1110 -4 -86 16
-165 79 -206 163 -34 69 -34 198 0 263 50 94 134 151 241 164 64 8 75 19 84
87 19 144 125 267 271 316 65 21 199 12 265 -19z"/>
<path d="M3380 3102 c-72 -47 -86 -67 -75 -102 13 -41 51 -36 125 15 73 50 88
72 71 103 -19 37 -48 33 -121 -16z"/>
<path d="M3409 2619 c-10 -10 -19 -26 -19 -34 0 -23 37 -55 65 -56 14 -1 28
-2 33 -4 89 -24 132 -13 132 34 0 39 -12 46 -109 64 -79 14 -84 14 -102 -4z"/>
</g>
</svg>
